HIERARCHY
ROOT Hips
{
	OFFSET 0.00 0.00 0.00
	CHANNELS 6 Xposition Yposition Zposition Xrotation Yrotation Zrotation
	JOINT Spine
	{
		OFFSET 0.00000 9.62115 0.00000
		CHANNELS 3 Xrotation Yrotation Zrotation
		JOINT Head
		{
			OFFSET 0.00000 12.77195 0.00000
			CHANNELS 3 Xrotation Yrotation Zrotation
			End Site
			{
				OFFSET 0.00000 4.52755 0.00000
			}
		}
		JOINT LeftShoulder
		{
			OFFSET 0.00000 7.40057 0.00000
			CHANNELS 3 Xrotation Yrotation Zrotation
			JOINT LeftArm
			{
				OFFSET 8.34930 0.00000 0.00000
				CHANNELS 3 Xrotation Yrotation Zrotation
				JOINT LeftForeArm
				{
					OFFSET 11.33484 0.00000 0.00000
					CHANNELS 3 Yrotation Zrotation Xrotation
					JOINT LeftHand
					{
						OFFSET 9.69418 0.00000 0.00000
						CHANNELS 3 Xrotation Yrotation Zrotation
						JOINT LeftHandThumb1
						{
							OFFSET 0.00000 0.00000 0.00000
							CHANNELS 3 Xrotation Zrotation Yrotation
							End Site
							{
								OFFSET 0.00000 0.00000 3.93700
							}
						}
						End Site
						{
							OFFSET 3.93700 0.00000 0.00000
						}
					}
				}
			}
		}
		JOINT RightShoulder
		{
			OFFSET 0.00000 7.40057 0.00000
			CHANNELS 3 Xrotation Yrotation Zrotation
			JOINT RightArm
			{
				OFFSET -8.34930 0.00000 0.00000
				CHANNELS 3 Xrotation Yrotation Zrotation
				JOINT RightForeArm
				{
					OFFSET -11.33484 0.00000 0.00000
					CHANNELS 3 Yrotation Zrotation Xrotation
					JOINT RightHand
					{
						OFFSET -9.69418 0.00000 0.00000
						CHANNELS 3 Xrotation Yrotation Zrotation
						JOINT RightHandThumb1
						{
							OFFSET 0.00000 0.00000 0.00000
							CHANNELS 3 Xrotation Zrotation Yrotation
							End Site
							{
								OFFSET 0.00000 0.00000 3.93700
							}
						}
						End Site
						{
							OFFSET -3.93700 0.00000 0.00000
						}
					}
				}
			}
		}
	}
	JOINT LeftUpLeg
	{
		OFFSET 2.70060 0.00000 0.00000
		CHANNELS 3 Xrotation Yrotation Zrotation
		JOINT LeftLeg
		{
			OFFSET 0.00000 -16.75718 0.00000
			CHANNELS 3 Xrotation Yrotation Zrotation
			JOINT LeftFoot
			{
				OFFSET 0.00000 -16.75915 0.00000
				CHANNELS 3 Xrotation Yrotation Zrotation
				JOINT LeftToeBase
				{
					OFFSET 0.00000 -1.51183 5.64225
					CHANNELS 3 Xrotation Yrotation Zrotation
					End Site
					{
						OFFSET 0.00000 0.00000 2.95275
					}
				}
			}
		}
	}
	JOINT RightUpLeg
	{
		OFFSET -2.70060 0.00000 0.00000
		CHANNELS 3 Xrotation Yrotation Zrotation
		JOINT RightLeg
		{
			OFFSET 0.00000 -16.75718 0.00000
			CHANNELS 3 Xrotation Yrotation Zrotation
			JOINT RightFoot
			{
				OFFSET 0.00000 -16.75915 0.00000
				CHANNELS 3 Xrotation Yrotation Zrotation
				JOINT RightToeBase
				{
					OFFSET 0.00000 -1.51183 5.64225
					CHANNELS 3 Xrotation Yrotation Zrotation
					End Site
					{
						OFFSET 0.00000 0.00000 2.95275
					}
				}
			}
		}
	}
}
MOTION
Frames: 9
Frame Time: 0.008333
 12.6987 35.0625 -20.1763 -173.1454 4.0346 -179.9650 21.7151 3.5349 -1.3648 31.2142 17.6130 11.8558 4.3891 13.8934 27.1945 -41.4316 2.9531 -34.4737 -4.6120 0.0000 17.9341 -0.2414 2.5747 5.3572 33.1476 -0.0000 26.2537 0.4178 -26.7106 -26.2138 -41.9382 11.4773 33.6781 5.2380 -0.0000 15.0977 1.3972 -10.3359 7.7414 32.8623 0.0000 -24.3270 4.8225 19.8350 2.9082 9.7240 0.0000 -0.0000 -18.6787 9.0640 -4.2966 8.6666 0.0000 -0.0000 2.9921 -14.3342 -4.0082 10.0630 0.0000 -0.0000 -12.9031 -5.7030 2.9840 5.4533 0.0000 0.0000
 12.7040 35.0629 -20.1589 -173.2015 4.0262 -179.9587 21.7336 3.5140 -1.4003 31.7400 17.6387 11.8955 4.3928 13.9014 27.2211 -41.4401 2.9722 -34.4598 -4.6118 0.0000 17.9089 -0.2363 2.5155 5.3682 33.1476 -0.0000 26.2537 0.4434 -26.7177 -26.1761 -41.9163 11.4554 33.6837 5.2971 -0.0000 15.0766 1.4095 -10.4404 7.7324 32.8623 0.0000 -24.3270 4.6971 19.8151 2.9269 9.8446 0.0000 -0.0000 -18.8957 9.3702 -4.4851 7.1895 -0.0000 -0.0000 2.9271 -14.3710 -4.0059 10.0258 -0.0000 0.0000 -12.8692 -5.6476 3.0258 5.4602 -0.0000 0.0000
 12.7089 35.0634 -20.1380 -173.2775 4.0117 -179.9586 21.7244 3.4951 -1.4138 32.2352 17.6664 11.9742 4.4266 13.9040 27.2119 -41.4523 2.9499 -34.4259 -4.5707 0.0000 17.8451 -0.2410 2.5270 5.4506 33.1476 -0.0000 26.2537 0.4874 -26.7445 -26.1362 -41.8807 11.4984 33.6832 5.3296 -0.0000 15.0004 1.4343 -10.6338 7.7272 32.8623 0.0000 -24.3270 4.5415 19.8039 2.9575 9.9660 0.0000 0.0000 -19.1356 9.7250 -4.6146 5.7224 0.0000 -0.0000 2.8369 -14.4157 -3.9986 9.9910 -0.0000 -0.0000 -12.8147 -5.5930 3.0767 5.3886 -0.0000 0.0000
 12.7125 35.0652 -20.1162 -173.3545 4.0030 -179.9499 21.7269 3.4641 -1.4504 32.7001 17.6990 12.0043 4.4182 13.8870 27.2206 -41.4549 2.9828 -34.3804 -4.5691 0.0000 17.8572 -0.2497 2.6009 5.4864 33.1476 -0.0000 26.2537 0.5544 -26.7907 -26.0800 -41.9031 11.5339 33.7095 5.3200 -0.0000 15.0008 1.4179 -10.5347 7.7098 32.8623 0.0000 -24.3270 4.3912 19.8127 2.9741 10.0799 0.0000 -0.0000 -19.3981 10.1638 -4.8273 4.4222 -0.0000 0.0000 2.7216 -14.4561 -4.0104 9.9923 0.0000 -0.0000 -12.7703 -5.5180 3.1408 5.4236 -0.0000 0.0000
 12.7122 35.0670 -20.0953 -173.4270 3.9735 -179.9325 21.7423 3.4084 -1.4796 33.1237 17.7865 12.0030 4.4112 13.9136 27.2306 -41.4806 2.9685 -34.3774 -4.4685 0.0000 17.7684 -0.2452 2.4724 5.6661 33.1476 -0.0000 26.2537 0.5432 -26.7918 -26.0585 -41.8109 11.5867 33.7108 5.3618 -0.0000 14.9214 1.4499 -10.6851 7.7738 32.8623 0.0000 -24.3270 4.2626 19.8292 2.9735 10.1634 -0.0000 -0.0000 -19.5996 10.5878 -4.8810 2.9759 0.0000 0.0000 2.6120 -14.5209 -4.0340 9.9913 0.0000 -0.0000 -12.7317 -5.4539 3.2253 5.3999 0.0000 0.0000
 12.7125 35.0685 -20.0781 -173.4870 3.9901 -179.9344 21.7603 3.4025 -1.5238 33.5212 17.8907 12.0472 4.4393 13.9410 27.2372 -41.5624 3.0087 -34.3468 -4.5048 0.0000 17.7726 -0.2507 2.5776 5.5578 33.1476 -0.0000 26.2537 0.6114 -26.8326 -25.9969 -41.8297 11.6491 33.7379 5.3143 -0.0000 14.9280 1.4547 -10.6903 7.7950 32.8623 0.0000 -24.3270 4.1532 19.9363 2.9951 10.2351 0.0000 0.0000 -19.8297 10.9707 -4.8096 1.8198 0.0000 -0.0000 2.5285 -14.5412 -4.0368 9.9775 -0.0000 -0.0000 -12.6813 -5.3949 3.2790 5.3702 0.0000 0.0000
 12.7111 35.0713 -20.0628 -173.5386 3.9965 -179.9262 21.7817 3.3836 -1.5658 33.9171 17.9539 12.0849 4.4188 13.9276 27.2468 -41.5347 3.0077 -34.3103 -4.4663 0.0000 17.6780 -0.2473 2.5473 5.5459 33.1476 -0.0000 26.2537 0.6657 -26.8644 -25.9617 -41.8485 11.6130 33.7713 5.3727 -0.0000 14.9363 1.4679 -10.6170 7.9182 32.8623 0.0000 -24.3270 4.0785 20.0717 2.9964 10.2527 -0.0000 0.0000 -20.0285 11.3101 -4.7862 0.6815 -0.0000 0.0000 2.4496 -14.5605 -4.0517 9.9723 0.0000 -0.0000 -12.6273 -5.3498 3.3279 5.3253 -0.0000 0.0000
 12.7066 35.0735 -20.0511 -173.5837 4.0004 -179.9141 21.8122 3.3669 -1.6224 34.2510 18.0461 12.1183 4.3896 13.9313 27.2776 -41.5426 3.0333 -34.3016 -4.4664 0.0000 17.6182 -0.2514 2.5843 5.5572 33.1476 -0.0000 26.2537 0.7569 -26.9036 -25.9063 -41.8946 11.5572 33.8015 5.4130 -0.0000 14.9745 1.4606 -10.4651 7.9910 32.8623 0.0000 -24.3270 4.0235 20.2182 2.9851 10.2622 -0.0000 0.0000 -20.3295 11.6503 -4.4214 0.1081 0.0000 0.0000 2.3848 -14.5613 -4.0716 9.9609 -0.0000 -0.0000 -12.5823 -5.3216 3.3395 5.3155 -0.0000 0.0000
 12.7011 35.0754 -20.0401 -173.6254 4.0091 -179.8970 21.8393 3.3550 -1.6874 34.5815 18.1110 12.1532 4.4089 13.9450 27.2962 -41.6031 3.0641 -34.2841 -4.4586 0.0000 17.5694 -0.2491 2.5694 5.5389 33.1476 -0.0000 26.2537 0.8551 -26.9578 -25.8324 -41.9243 11.6065 33.8124 5.3472 -0.0000 14.9876 1.4655 -10.4153 8.0547 32.8623 0.0000 -24.3270 3.9730 20.4124 2.9693 10.2707 0.0000 0.0000 -20.6612 11.8916 -4.0822 -0.2772 0.0000 -0.0000 2.3075 -14.5647 -4.1014 9.9757 -0.0000 0.0000 -12.5455 -5.2979 3.3859 5.2892 -0.0000 0.0000
